<?xml version="1.0" encoding="utf-8"?>
<!-- Generator: Adobe Illustrator 27.2.0, SVG Export Plug-In . SVG Version: 6.00 Build 0)  -->
<svg version="1.1" id="svg1" xmlns:svg="http://www.w3.org/2000/svg"
	 xmlns="http://www.w3.org/2000/svg" xmlns:xlink="http://www.w3.org/1999/xlink" x="0px" y="0px" viewBox="0 0 850.4 566.9"
	 style="enable-background:new 0 0 850.4 566.9;" xml:space="preserve">
<style type="text/css">
	.st0{fill:#006BEE;}
	.st1{fill:#FFD400;}
	.st2{font-family:'Arial-BoldMT';}
	.st3{font-size:22.2096px;}
	.st4{letter-spacing:2.3;}
	.st5{font-family:'ArialMT';}
	.st6{font-size:28.4601px;}
	.st7{font-size:25.0533px;}
	.st8{letter-spacing:1.1;}
	.st9{font-size:45.2237px;}
	.st10{letter-spacing:2.4;}
</style>
<g id="layer1">
	<path id="path4-2-9-2-0-2" class="st0" d="M192,117.8c25.9-11.7,66.9-11.9,94.6-0.1C259.1,92,218.6,91.8,192,117.8L192,117.8z"/>
	<path id="path20-28-2-1-3-8" class="st1" d="M198.6,127.6c-6.6-3.9-7.5-7.2,1.3-9.3c25.4-5.6,50-6.7,75.2,0.5
		c11.1,3.5,11.3,5.8,4,9.5C254.4,140.9,226.4,141.9,198.6,127.6z"/>
	<text transform="matrix(0.8825 0 0 1 613.125 161.144)" class="st0 st2 st3"> </text>
	<text transform="matrix(0.8825 0 0 1 618.5713 161.144)" class="st0 st2 st3 st4"> </text>
	<text transform="matrix(0.94 0 0 1 165.6987 165.8745)" class="st0 st5 st6"> </text>
	<text transform="matrix(0.94 0 0 1 165.6987 198.437)" class="st0 st5 st7">of Ukrainian Science, Technology </text>
	<text transform="matrix(0.94 0 0 1 165.6987 232.7671)" class="st0 st5 st7">and Innovation Policy</text>
	<text transform="matrix(0.94 0 0 1 389.5752 232.7671)" class="st0 st2 st6 st8"> </text>
	<text transform="matrix(0.8825 0 0 1 125.6328 161.3193)" class="st0 st2 st9">Foresight Delphi Survey </text>
	<text transform="matrix(0.8825 0 0 1 318.3906 161.8843)" class="st0 st2 st3 st4"> </text>
	<g id="g58">
		<text transform="matrix(0.8497 0 0 1 765.6084 466.0488)" class="st0 st2 st3"> </text>
		<text transform="matrix(0.8497 0 0 1 770.8525 466.0488)" class="st0 st2 st3 st10"> </text>
		<text transform="matrix(0.9051 0 0 1 334.8008 470.7793)" class="st0 st5 st6"> </text>
		<text transform="matrix(0.9051 0 0 1 550.3613 537.6699)" class="st0 st2 st6 st8"> </text>
		<text transform="matrix(0.8497 0 0 1 481.8203 466.7891)" class="st0 st2 st3 st10"> </text>
	</g>
	<g id="g48" transform="translate(-194.43132,48.492083)">
		<text transform="matrix(0.8497 0 0 1 408.4401 420.0333)" class="st0 st2 st3 st10"> </text>
	</g>
	<text transform="matrix(0.8497 0 0 1 228.8511 116.3965)" class="st0 st2 st3 st10"> </text>
</g>
</svg>
